name C:\Users\u0101727\Documents\MyRepositories\upper-imu-dc\Results\main_tracking\Case_41\kinematics.mot
datacolumns 10
datarows 52
range 2.00000000 2.51000000
endheader 
time	clav_prot	clav_elev	scapula_abduction	scapula_elevation	scapula_upward_rot	scapula_winging	plane_elv	shoulder_elv	axial_rot	
          2.00000000	        -24.85835704	          4.20675567	          9.54727622	         -4.53199534	         51.68002183	         -4.96825355	         61.32996244	         71.12153331	        -20.96209778	
          2.01000000	        -25.00212120	          4.26949697	          9.61977902	         -4.52267673	         52.09224770	         -5.03063232	         61.11301904	         71.43418552	        -20.78314641	
          2.02000000	        -25.15091201	          4.32631159	          9.68456514	         -4.51682586	         52.50371810	         -5.09091192	         60.89455642	         71.74605183	        -20.59106105	
          2.03000000	        -25.30391653	          4.37776571	          9.74200814	         -4.51393647	         52.91334825	         -5.14917628	         60.67518757	         72.05706570	        -20.38775202	
          2.04000000	        -25.46035570	          4.42446056	          9.79248477	         -4.51349557	         53.32014141	         -5.20552735	         60.45544304	         72.36710696	        -20.17543558	
          2.05000000	        -25.61950062	          4.46701406	          9.83638051	         -4.51499794	         53.72322370	         -5.26008337	         60.23576462	         72.67600138	        -19.95655455	
          2.06000000	        -25.78068190	          4.50604143	          9.87409608	         -4.51795962	         54.12186499	         -5.31297497	         60.01650339	         72.98352926	        -19.73367910	
          2.07000000	        -25.94329513	          4.54213652	          9.90605000	         -4.52192980	         54.51548729	         -5.36434013	         59.79792478	         73.28944232	        -19.50938760	
          2.08000000	        -26.10680612	          4.57585595	          9.93267320	         -4.52650019	         54.90366415	         -5.41431923	         59.58022057	         73.59348629	        -19.28613137	
          2.09000000	        -26.27075832	          4.60770808	          9.95439425	         -4.53131107	         55.28611502	         -5.46305148	         59.36352572	         73.89542526	        -19.06609287	
          2.10000000	        -26.43478294	          4.63814828	          9.97161686	         -4.53605306	         55.66269818	         -5.51067362	         59.14793595	         74.19506316	        -18.85105133	
          2.11000000	        -26.59860971	          4.66758174	          9.98469418	         -4.54046401	         56.03340368	         -5.55732131	         58.93352201	         74.49225886	        -18.64227263	
          2.12000000	        -26.76207470	          4.69637451	          9.99390667	         -4.54432004	         56.39834625	         -5.60313301	         58.72033722	         74.78693268	        -18.44044106	
          2.13000000	        -26.92512059	          4.72487196	          9.99944939	         -4.54742109	         56.75775616	         -5.64825540	         58.50841647	         75.07906491	        -18.24564662	
          2.14000000	        -27.08778671	          4.75342081	         10.00143296	         -4.54957339	         57.11196549	         -5.69284867	         58.29776641	         75.36868900	        -18.05743285	
          2.15000000	        -27.25018868	          4.78238817	          9.99989799	         -4.55057339	         57.46138754	         -5.73708930	         58.08834848	         75.65588290	        -17.87489757	
          2.16000000	        -27.41249070	          4.81217106	          9.99483945	         -4.55019788	         57.80649016	         -5.78116876	         57.88005850	         75.94076095	        -17.69682583	
          2.17000000	        -27.57487607	          4.84319367	          9.98623455	         -4.54820294	         58.14776587	         -5.82528798	         57.67270752	         76.22346668	        -17.52182860	
          2.18000000	        -27.73752109	          4.87589421	          9.97406791	         -4.54433055	         58.48570329	         -5.86964899	         57.46600986	         76.50416564	        -17.34846744	
          2.19000000	        -27.90057614	          4.91070668	          9.95834959	         -4.53831972	         58.82076364	         -5.91444591	         57.25958231	         76.78303702	        -17.17535645	
          2.20000000	        -28.06415480	          4.94804303	          9.93912442	         -4.52991817	         59.15336436	         -5.95985731	         57.05295639	         77.06026348	        -17.00124256	
          2.21000000	        -28.22832964	          4.98827968	          9.91647386	         -4.51889175	         59.48386897	         -6.00604080	         56.84560245	         77.33602047	        -16.82506835	
          2.22000000	        -28.39313283	          5.03174936	          9.89051150	         -4.50503047	         59.81258104	         -6.05313014	         56.63696281	         77.61046729	        -16.64601908	
          2.23000000	        -28.55856123	          5.07873667	          9.86137176	         -4.48815252	         60.13974069	         -6.10123426	         56.42649058	         77.88374168	        -16.46355059	
          2.24000000	        -28.72458660	          5.12947417	          9.82919094	         -4.46810817	         60.46552266	         -6.15043763	         56.21369065	         78.15595847	        -16.27739174	
          2.25000000	        -28.89117063	          5.18413680	          9.79408111	         -4.44478525	         60.79003570	         -6.20080143	         55.99815818	         78.42721090	        -16.08751896	
          2.26000000	        -29.05828259	          5.24283391	          9.75610094	         -4.41811645	         61.11332294	         -6.25236513	         55.77961003	         78.69757232	        -15.89410662	
          2.27000000	        -29.22591612	          5.30559992	          9.71522890	         -4.38808760	         61.43536294	         -6.30514812	         55.55790498	         78.96709520	        -15.69746327	
          2.28000000	        -29.39410166	          5.37238541	          9.67134508	         -4.35474525	         61.75607174	         -6.35915140	         55.33305094	         79.23580504	        -15.49796561	
          2.29000000	        -29.56291172	          5.44305074	          9.62422585	         -4.31820207	         62.07530578	         -6.41435903	         55.10519923	         79.50368876	        -15.29600300	
          2.30000000	        -29.73245744	          5.51736389	          9.57355394	         -4.27863857	         62.39286603	         -6.47073930	         54.87462789	         79.77067963	        -15.09194223	
          2.31000000	        -29.90287693	          5.59500371	          9.51894332	         -4.23630050	         62.70850362	         -6.52824563	         54.64171658	         80.03664181	        -14.88611849	
          2.32000000	        -30.07431735	          5.67556876	          9.45997573	         -4.19149177	         63.02192790	         -6.58681729	         54.40691664	         80.30135799	        -14.67885321	
          2.33000000	        -30.24691398	          5.75859127	          9.39624383	         -4.14456355	         63.33281712	         -6.64638012	         54.17071975	         80.56452320	        -14.47049405	
          2.34000000	        -30.42077059	          5.84355475	          9.32739343	         -4.09590062	         63.64083215	         -6.70684757	         53.93362929	         80.82574684	        -14.26146656	
          2.35000000	        -30.59594528	          5.92991357	          9.25315778	         -4.04590669	         63.94563236	         -6.76812246	         53.69613764	         81.08456354	        -14.05232250	
          2.36000000	        -30.77244444	          6.01711274	          9.17337817	         -3.99498991	         64.24689284	         -6.83009978	         53.45871104	         81.34045199	        -13.84377079	
          2.37000000	        -30.95022543	          6.10460627	          9.08800970	         -3.94354977	         64.54432168	         -6.89267051	         53.22178117	         81.59285866	        -13.63668209	
          2.38000000	        -31.12920645	          6.19187290	          8.99711438	         -3.89196629	         64.83767698	         -6.95572609	         52.98574103	         81.84122261	        -13.43206486	
          2.39000000	        -31.30928119	          6.27842836	          8.90084610	         -3.84059177	         65.12678304	         -7.01916310	         52.75094359	         82.08499793	        -13.23101615	
          2.40000000	        -31.49033494	          6.36383454	          8.79943196	         -3.78974477	         65.41154480	         -7.08288768	         52.51770247	         82.32367242	        -13.03465492	
          2.41000000	        -31.67225937	          6.44770648	          8.69315366	         -3.73970541	         65.69195895	         -7.14681935	         52.28629537	         82.55678260	        -12.84404973	
          2.42000000	        -31.85496376	          6.52971804	          8.58233123	         -3.69071156	         65.96811998	         -7.21089399	         52.05697015	         82.78392609	        -12.66015217	
          2.43000000	        -32.03838159	          6.60960619	          8.46730989	         -3.64295556	         66.24021994	         -7.27506566	         51.82995309	         83.00477224	        -12.48374442	
          2.44000000	        -32.22247222	          6.68717370	          8.34845053	         -3.59658211	         66.50854177	         -7.33930714	         51.60545736	         83.21907095	        -12.31540550	
          2.45000000	        -32.40721787	          6.76228943	          8.22612420	         -3.55168758	         66.77344681	         -7.40360884	         51.38368887	         83.42665946	        -12.15549787	
          2.46000000	        -32.59261626	          6.83488567	          8.10071116	         -3.50832139	         67.03535795	         -7.46797598	         51.16484697	         83.62746631	        -12.00417424	
          2.47000000	        -32.77867015	          6.90495206	          7.97260434	         -3.46648965	         67.29474025	         -7.53242412	         50.94911865	         83.82151176	        -11.86140331	
          2.48000000	        -32.96537539	          6.97252628	          7.84221567	         -3.42616111	         67.55208109	         -7.59697332	         50.73666623	         84.00890391	        -11.72701109	
          2.49000000	        -33.15271004	          7.03768279	          7.70998243	         -3.38727468	         67.80787193	         -7.66164206	         50.52761066	         84.18983030	        -11.60073265	
          2.50000000	        -33.34062729	          7.10052117	          7.57636937	         -3.34974742	         68.06259295	         -7.72644207	         50.32201382	         84.36454534	        -11.48226622	
          2.51000000	        -33.52905423	          7.16115661	          7.44186293	         -3.31348162	         68.31670113	         -7.79137550	         50.11986374	         84.53335518	        -11.37132118	
